<svg width="31" height="34" viewBox="0 0 31 34" fill="none" xmlns="http://www.w3.org/2000/svg">
<path d="M2.40715 15.5327C2.56848 15.8209 2.87557 16 3.20832 16H7.79165C8.1244 16 8.43148 15.8209 8.59282 15.5327L10.8845 11.4418C11.0385 11.1673 11.0385 10.8336 10.8845 10.5582L8.59282 6.46728C8.43148 6.17909 8.1244 6 7.79165 6H3.20832C2.87557 6 2.56848 6.17909 2.40715 6.46728L0.115484 10.5582C-0.0385157 10.8327 -0.0385157 11.1664 0.115484 11.4418L2.40715 15.5327ZM3.74823 7.81818H7.25173L9.03465 11L7.25173 14.1818H3.74823L1.96532 11L3.74823 7.81818Z" fill="currentColor"/>
<path d="M28.5928 6.46727C28.4315 6.17909 28.1244 6 27.7917 6H23.2083C22.8756 6 22.5685 6.17909 22.4072 6.46727L20.1155 10.5582C19.9615 10.8327 19.9615 11.1664 20.1155 11.4418L22.4072 15.5327C22.5685 15.8209 22.8756 16 23.2083 16H27.7917C28.1244 16 28.4315 15.8209 28.5928 15.5327L30.8845 11.4418C31.0385 11.1673 31.0385 10.8336 30.8845 10.5582L28.5928 6.46727ZM27.2517 14.1818H23.7483L21.9653 11L23.7483 7.81818H27.2517L29.0347 11L27.2517 14.1818Z" fill="currentColor"/>
<path d="M18.5928 0.467273C18.4315 0.179091 18.1244 0 17.7917 0H13.2083C12.8756 0 12.5685 0.179091 12.4072 0.467273L10.1155 4.55818C9.9615 4.83273 9.9615 5.16636 10.1155 5.44182L12.4072 9.53273C12.5685 9.82091 12.8756 10 13.2083 10H17.7917C18.1244 10 18.4315 9.82091 18.5928 9.53273L20.8845 5.44182C21.0385 5.16727 21.0385 4.83364 20.8845 4.55818L18.5928 0.467273ZM17.2517 8.18182H13.7483L11.9653 5L13.7483 1.81818H17.2517L19.0347 5L17.2517 8.18182Z" fill="currentColor"/>
<path d="M10.8845 22.5582L8.59283 18.4673C8.4315 18.1791 8.12442 18 7.79167 18H3.20833C2.87558 18 2.5685 18.1791 2.40717 18.4673L0.1155 22.5582C-0.0385001 22.8327 -0.0385001 23.1664 0.1155 23.4418L2.40717 27.5327C2.5685 27.8209 2.87558 28 3.20833 28H7.79167C8.12442 28 8.4315 27.8209 8.59283 27.5327L10.8845 23.4418C11.0385 23.1673 11.0385 22.8327 10.8845 22.5582ZM7.25175 26.1818H3.74825L1.96533 23L3.74825 19.8182H7.25175L9.03467 23L7.25175 26.1818Z" fill="currentColor"/>
<path d="M28.5928 18.4673C28.4315 18.1791 28.1244 18 27.7917 18H23.2083C22.8756 18 22.5685 18.1791 22.4072 18.4673L20.1155 22.5582C19.9615 22.8327 19.9615 23.1664 20.1155 23.4418L22.4072 27.5327C22.5685 27.8209 22.8756 28 23.2083 28H27.7917C28.1244 28 28.4315 27.8209 28.5928 27.5327L30.8845 23.4418C31.0385 23.1673 31.0385 22.8336 30.8845 22.5582L28.5928 18.4673ZM27.2517 26.1818H23.7483L21.9653 23L23.7483 19.8182H27.2517L29.0347 23L27.2517 26.1818Z" fill="currentColor"/>
<path d="M17.7917 12H13.2083C12.8756 12 12.5685 12.1791 12.4072 12.4673L10.1155 16.5582C9.9615 16.8327 9.9615 17.1664 10.1155 17.4418L12.4072 21.5327C12.5685 21.8209 12.8756 22 13.2083 22H17.7917C18.1244 22 18.4315 21.8209 18.5928 21.5327L20.8845 17.4418C21.0385 17.1673 21.0385 16.8336 20.8845 16.5582L18.5928 12.4673C18.4315 12.1791 18.1244 12 17.7917 12ZM19.0347 17L17.2517 20.1818H13.7482L11.9653 17L13.7482 13.8182H17.2517L19.0347 17Z" fill="currentColor"/>
<path d="M18.5928 24.4673C18.4315 24.1791 18.1244 24 17.7917 24H13.2083C12.8756 24 12.5685 24.1791 12.4072 24.4673L10.1155 28.5582C9.9615 28.8327 9.9615 29.1664 10.1155 29.4418L12.4072 33.5327C12.5685 33.8209 12.8756 34 13.2083 34H17.7917C18.1244 34 18.4315 33.8209 18.5928 33.5327L20.8845 29.4418C21.0385 29.1673 21.0385 28.8336 20.8845 28.5582L18.5928 24.4673ZM17.2517 32.1818H13.7482L11.9653 29L13.7482 25.8182H17.2517L19.0347 29L17.2517 32.1818Z" fill="currentColor"/>
</svg>
